# xmcd
#
# Track frame offsets:
#	150
#	12527
#	27850
#	45852
#	64108
#	79318
#	91469
#	102679
#	113732
#	130656
#	150895
#	170673
#	188609
#	199945
#	215577
#
# Disc length: 3102 seconds
#
# Revision: 0
# Processed by: cddbd v1.5.2PL0 Copyright (c) Steve Scherf et al.
# Submitted via: audiograbber 1.83.01
#
DISCID=c40c1c0f
DTITLE=Snowy Robson - Another Evening
DYEAR=1900
DGENRE=Country
TTITLE0=My Girl
TTITLE1=Sundown
TTITLE2=Old Dogs and Children
TTITLE3=Sunday Morning Coming Down
TTITLE4=For The Good Times
TTITLE5=Father and Son
TTITLE6=Let It Be Me
TTITLE7=I Can't Stop Loving You
TTITLE8=Lady
TTITLE9=King Of Oak Street
TTITLE10=Honey
TTITLE11=Streets Of London
TTITLE12=Streets Of Laredo
TTITLE13=The Gambler
TTITLE14=Sweet Caroline
EXTD=
EXTT0=
EXTT1=
EXTT2=
EXTT3=
EXTT4=
EXTT5=
EXTT6=
EXTT7=
EXTT8=
EXTT9=
EXTT10=
EXTT11=
EXTT12=
EXTT13=
EXTT14=
PLAYORDER=
